<svg id="Layer_1" data-name="Layer 1" xmlns="http://www.w3.org/2000/svg" viewBox="0 0 1133.86 141.73"><defs><style>.cls-1{fill:#a0a0a0;}.cls-2{fill:#00d2ff;}</style></defs><title>Artboard 1</title><path class="cls-1" d="M486.48,32.35v77.72H564.2V32.35ZM553.1,99H497.58V43.45H553.1Z"/><path class="cls-1" d="M864,32.35v77.72h77.72V32.35ZM930.61,99H875.09V43.45h55.52Z"/><polygon class="cls-1" points="797.37 110.07 797.37 43.45 830.68 43.45 830.68 32.35 752.96 32.35 752.96 43.45 786.27 43.45 786.27 110.07 797.37 110.07"/><polygon class="cls-1" points="730.75 32.35 730.75 98.97 675.23 98.97 675.23 32.35 664.13 32.35 664.13 110.07 741.85 110.07 741.85 32.35 730.75 32.35"/><polygon class="cls-1" points="963.91 110.07 963.91 43.45 1019.43 43.45 1019.43 110.07 1030.53 110.07 1030.53 32.35 952.81 32.35 952.81 110.07 963.91 110.07"/><polygon class="cls-1" points="586.41 98.97 586.41 32.35 575.31 32.35 575.31 110.07 653.03 110.07 653.03 98.97 586.41 98.97"/><polygon class="cls-1" points="475.38 43.45 475.38 32.35 397.66 32.35 397.66 76.76 464.28 76.76 464.28 98.97 397.66 98.97 397.66 110.07 475.38 110.07 475.38 65.66 408.76 65.66 408.76 43.45 475.38 43.45"/><polygon class="cls-1" points="1119.36 43.45 1119.36 32.35 1041.63 32.35 1041.63 76.76 1108.26 76.76 1108.26 98.97 1041.63 98.97 1041.63 110.07 1119.36 110.07 1119.36 65.66 1052.74 65.66 1052.74 43.45 1119.36 43.45"/><rect class="cls-1" x="841.78" y="32.35" width="11.1" height="77.72"/><path class="cls-1" d="M231.11,32.35v77.72h77.72V32.35Zm11.1,11.1h55.52V91.12L273.9,67.29l-7.85,7.85L289.88,99H242.21Z"/><polygon class="cls-2" points="170.91 61.4 116.42 115.89 68.34 87.05 68.34 87.05 116.42 135.13 170.91 61.4 170.91 61.4"/><polygon class="cls-2" points="77.95 26.14 122.83 71.02 102 91.85 114.02 99.06 142.06 71.02 77.95 6.91 13.85 71.02 77.95 135.13 87.57 125.51 33.08 71.02 77.95 26.14"/></svg>